<?xml version="1.0" standalone="no"?>
<!DOCTYPE svg PUBLIC "-//W3C//DTD SVG 20010904//EN"
 "http://www.w3.org/TR/2001/REC-SVG-20010904/DTD/svg10.dtd">
<svg version="1.0" xmlns="http://www.w3.org/2000/svg"
 width="600.000000pt" height="600.000000pt" viewBox="0 0 600.000000 600.000000"
 preserveAspectRatio="xMidYMid meet">

<g transform="translate(0.000000,600.000000) scale(0.100000,-0.100000)"
fill="#000000" stroke="none">
<path d="M2495 4547 l-446 -744 11 -149 c6 -82 14 -196 18 -254 l7 -105 80 0
80 0 70 212 c39 117 73 212 78 213 4 0 7 -198 7 -440 0 -242 -3 -440 -7 -440
-5 0 -26 44 -47 98 -22 53 -54 130 -72 170 l-33 73 -73 -3 -73 -3 3 -50 c2
-46 121 -1869 141 -2179 5 -76 13 -142 18 -146 12 -12 403 -76 583 -96 133
-15 174 -16 285 -6 107 10 622 89 633 97 2 2 19 243 38 536 19 294 54 827 78
1184 24 358 41 653 39 658 -2 4 -36 7 -74 7 l-70 0 -28 -62 c-15 -35 -48 -111
-72 -170 -24 -59 -47 -108 -51 -108 -5 0 -8 199 -8 442 0 243 3 438 8 434 4
-4 39 -101 77 -214 l70 -207 80 0 80 0 17 255 18 255 -446 743 c-245 408 -447
742 -449 742 -3 0 -5 -337 -5 -748 l0 -749 40 -18 c48 -22 103 -80 125 -131
21 -51 19 -159 -4 -209 -39 -87 -122 -140 -216 -140 -94 0 -177 53 -216 140
-23 50 -25 158 -4 209 22 51 77 109 125 131 l40 18 0 749 c0 411 -2 748 -5
748 -2 0 -205 -335 -450 -743z"/>
</g>
</svg>
